<mxfile host="app.diagrams.net" modified="2023-11-10T02:12:35.389Z" agent="Mozilla/5.0 (Windows NT 10.0; Win64; x64) AppleWebKit/537.36 (KHTML, like Gecko) Chrome/119.0.0.0 Safari/537.36" etag="BiT4mYTuRdpC_iT717h-" version="22.1.0" type="github">
  <diagram name="第 1 页" id="dj7T8ALXCWvyVN4PgUyA">
    <mxGraphModel dx="1050" dy="566" grid="1" gridSize="10" guides="1" tooltips="1" connect="1" arrows="1" fold="1" page="1" pageScale="1" pageWidth="827" pageHeight="1169" math="0" shadow="0">
      <root>
        <mxCell id="0" />
        <mxCell id="1" parent="0" />
        <mxCell id="8U1QCe3GgMSsuvsEtbN4-37" value="" style="ellipse;whiteSpace=wrap;html=1;" vertex="1" parent="1">
          <mxGeometry x="40" y="470" width="670" height="370" as="geometry" />
        </mxCell>
        <mxCell id="8U1QCe3GgMSsuvsEtbN4-1" value="群组" style="whiteSpace=wrap;html=1;" vertex="1" parent="1">
          <mxGeometry x="430" y="180" width="120" height="60" as="geometry" />
        </mxCell>
        <mxCell id="8U1QCe3GgMSsuvsEtbN4-10" style="edgeStyle=orthogonalEdgeStyle;rounded=0;orthogonalLoop=1;jettySize=auto;html=1;entryX=0.5;entryY=0;entryDx=0;entryDy=0;" edge="1" parent="1" source="8U1QCe3GgMSsuvsEtbN4-4" target="8U1QCe3GgMSsuvsEtbN4-5">
          <mxGeometry relative="1" as="geometry" />
        </mxCell>
        <mxCell id="8U1QCe3GgMSsuvsEtbN4-13" style="edgeStyle=orthogonalEdgeStyle;rounded=0;orthogonalLoop=1;jettySize=auto;html=1;entryX=0.5;entryY=0;entryDx=0;entryDy=0;" edge="1" parent="1" source="8U1QCe3GgMSsuvsEtbN4-4" target="8U1QCe3GgMSsuvsEtbN4-1">
          <mxGeometry relative="1" as="geometry" />
        </mxCell>
        <mxCell id="8U1QCe3GgMSsuvsEtbN4-4" value="根群组" style="whiteSpace=wrap;html=1;" vertex="1" parent="1">
          <mxGeometry x="330" y="60" width="120" height="60" as="geometry" />
        </mxCell>
        <mxCell id="8U1QCe3GgMSsuvsEtbN4-11" style="edgeStyle=orthogonalEdgeStyle;rounded=0;orthogonalLoop=1;jettySize=auto;html=1;entryX=0.5;entryY=0;entryDx=0;entryDy=0;" edge="1" parent="1" source="8U1QCe3GgMSsuvsEtbN4-5" target="8U1QCe3GgMSsuvsEtbN4-8">
          <mxGeometry relative="1" as="geometry" />
        </mxCell>
        <mxCell id="8U1QCe3GgMSsuvsEtbN4-12" style="edgeStyle=orthogonalEdgeStyle;rounded=0;orthogonalLoop=1;jettySize=auto;html=1;entryX=0.5;entryY=0;entryDx=0;entryDy=0;" edge="1" parent="1" source="8U1QCe3GgMSsuvsEtbN4-5" target="8U1QCe3GgMSsuvsEtbN4-9">
          <mxGeometry relative="1" as="geometry" />
        </mxCell>
        <mxCell id="8U1QCe3GgMSsuvsEtbN4-5" value="群组" style="whiteSpace=wrap;html=1;" vertex="1" parent="1">
          <mxGeometry x="210" y="180" width="120" height="60" as="geometry" />
        </mxCell>
        <mxCell id="8U1QCe3GgMSsuvsEtbN4-8" value="群组" style="whiteSpace=wrap;html=1;" vertex="1" parent="1">
          <mxGeometry x="110" y="280" width="120" height="60" as="geometry" />
        </mxCell>
        <mxCell id="8U1QCe3GgMSsuvsEtbN4-9" value="群组" style="whiteSpace=wrap;html=1;" vertex="1" parent="1">
          <mxGeometry x="270" y="280" width="120" height="60" as="geometry" />
        </mxCell>
        <mxCell id="8U1QCe3GgMSsuvsEtbN4-24" value="群组" style="whiteSpace=wrap;html=1;" vertex="1" parent="1">
          <mxGeometry x="480" y="610" width="120" height="60" as="geometry" />
        </mxCell>
        <mxCell id="8U1QCe3GgMSsuvsEtbN4-25" style="edgeStyle=orthogonalEdgeStyle;rounded=0;orthogonalLoop=1;jettySize=auto;html=1;entryX=0.5;entryY=0;entryDx=0;entryDy=0;" edge="1" parent="1" source="8U1QCe3GgMSsuvsEtbN4-27" target="8U1QCe3GgMSsuvsEtbN4-30">
          <mxGeometry relative="1" as="geometry" />
        </mxCell>
        <mxCell id="8U1QCe3GgMSsuvsEtbN4-26" style="edgeStyle=orthogonalEdgeStyle;rounded=0;orthogonalLoop=1;jettySize=auto;html=1;entryX=0.5;entryY=0;entryDx=0;entryDy=0;" edge="1" parent="1" source="8U1QCe3GgMSsuvsEtbN4-27" target="8U1QCe3GgMSsuvsEtbN4-24">
          <mxGeometry relative="1" as="geometry" />
        </mxCell>
        <mxCell id="8U1QCe3GgMSsuvsEtbN4-27" value="根群组" style="whiteSpace=wrap;html=1;" vertex="1" parent="1">
          <mxGeometry x="380" y="490" width="120" height="60" as="geometry" />
        </mxCell>
        <mxCell id="8U1QCe3GgMSsuvsEtbN4-28" style="edgeStyle=orthogonalEdgeStyle;rounded=0;orthogonalLoop=1;jettySize=auto;html=1;entryX=0.5;entryY=0;entryDx=0;entryDy=0;" edge="1" parent="1" source="8U1QCe3GgMSsuvsEtbN4-30" target="8U1QCe3GgMSsuvsEtbN4-31">
          <mxGeometry relative="1" as="geometry" />
        </mxCell>
        <mxCell id="8U1QCe3GgMSsuvsEtbN4-29" style="edgeStyle=orthogonalEdgeStyle;rounded=0;orthogonalLoop=1;jettySize=auto;html=1;entryX=0.5;entryY=0;entryDx=0;entryDy=0;" edge="1" parent="1" source="8U1QCe3GgMSsuvsEtbN4-30" target="8U1QCe3GgMSsuvsEtbN4-32">
          <mxGeometry relative="1" as="geometry" />
        </mxCell>
        <mxCell id="8U1QCe3GgMSsuvsEtbN4-30" value="群组" style="whiteSpace=wrap;html=1;" vertex="1" parent="1">
          <mxGeometry x="260" y="610" width="120" height="60" as="geometry" />
        </mxCell>
        <mxCell id="8U1QCe3GgMSsuvsEtbN4-31" value="群组" style="whiteSpace=wrap;html=1;" vertex="1" parent="1">
          <mxGeometry x="160" y="710" width="120" height="60" as="geometry" />
        </mxCell>
        <mxCell id="8U1QCe3GgMSsuvsEtbN4-32" value="群组" style="whiteSpace=wrap;html=1;" vertex="1" parent="1">
          <mxGeometry x="320" y="710" width="120" height="60" as="geometry" />
        </mxCell>
        <mxCell id="8U1QCe3GgMSsuvsEtbN4-3" value="管理员" style="ellipse;whiteSpace=wrap;html=1;" vertex="1" parent="1">
          <mxGeometry x="300" y="65" width="60" height="50" as="geometry" />
        </mxCell>
        <mxCell id="8U1QCe3GgMSsuvsEtbN4-33" value="管理员" style="ellipse;whiteSpace=wrap;html=1;" vertex="1" parent="1">
          <mxGeometry x="190" y="185" width="60" height="50" as="geometry" />
        </mxCell>
        <mxCell id="8U1QCe3GgMSsuvsEtbN4-34" value="管理员" style="ellipse;whiteSpace=wrap;html=1;" vertex="1" parent="1">
          <mxGeometry x="400" y="185" width="60" height="50" as="geometry" />
        </mxCell>
        <mxCell id="8U1QCe3GgMSsuvsEtbN4-35" value="管理员" style="ellipse;whiteSpace=wrap;html=1;" vertex="1" parent="1">
          <mxGeometry x="90" y="285" width="60" height="50" as="geometry" />
        </mxCell>
        <mxCell id="8U1QCe3GgMSsuvsEtbN4-36" value="管理员" style="ellipse;whiteSpace=wrap;html=1;" vertex="1" parent="1">
          <mxGeometry x="250" y="285" width="60" height="50" as="geometry" />
        </mxCell>
        <mxCell id="8U1QCe3GgMSsuvsEtbN4-38" value="管理员" style="ellipse;whiteSpace=wrap;html=1;" vertex="1" parent="1">
          <mxGeometry x="130" y="530" width="70" height="50" as="geometry" />
        </mxCell>
      </root>
    </mxGraphModel>
  </diagram>
</mxfile>
